<svg width="108" height="75" viewBox="0 0 108 75" fill="none" xmlns="http://www.w3.org/2000/svg">
<path d="M6.688 70.16C5.83467 70.16 5.04 70.0213 4.304 69.744C3.57867 69.456 2.944 69.056 2.4 68.544C1.86667 68.0213 1.45067 67.408 1.152 66.704C0.853333 66 0.704 65.232 0.704 64.4C0.704 63.568 0.853333 62.8 1.152 62.096C1.45067 61.392 1.872 60.784 2.416 60.272C2.96 59.7493 3.59467 59.3493 4.32 59.072C5.04533 58.784 5.84 58.64 6.704 58.64C7.62133 58.64 8.45867 58.8 9.216 59.12C9.97333 59.4293 10.6133 59.8933 11.136 60.512L9.792 61.776C9.38667 61.3387 8.93333 61.0133 8.432 60.8C7.93067 60.576 7.38667 60.464 6.8 60.464C6.21333 60.464 5.67467 60.56 5.184 60.752C4.704 60.944 4.28267 61.216 3.92 61.568C3.568 61.92 3.29067 62.336 3.088 62.816C2.896 63.296 2.8 63.824 2.8 64.4C2.8 64.976 2.896 65.504 3.088 65.984C3.29067 66.464 3.568 66.88 3.92 67.232C4.28267 67.584 4.704 67.856 5.184 68.048C5.67467 68.24 6.21333 68.336 6.8 68.336C7.38667 68.336 7.93067 68.2293 8.432 68.016C8.93333 67.792 9.38667 67.456 9.792 67.008L11.136 68.288C10.6133 68.896 9.97333 69.36 9.216 69.68C8.45867 70 7.616 70.16 6.688 70.16ZM19.1426 70.16C18.268 70.16 17.4626 70.016 16.7266 69.728C15.9906 69.44 15.3506 69.04 14.8066 68.528C14.2626 68.0053 13.8413 67.3973 13.5426 66.704C13.244 66 13.0946 65.232 13.0946 64.4C13.0946 63.568 13.244 62.8053 13.5426 62.112C13.8413 61.408 14.2626 60.8 14.8066 60.288C15.3506 59.7653 15.9906 59.36 16.7266 59.072C17.4626 58.784 18.2626 58.64 19.1266 58.64C20.0013 58.64 20.8013 58.784 21.5266 59.072C22.2626 59.36 22.9026 59.7653 23.4466 60.288C23.9906 60.8 24.412 61.408 24.7106 62.112C25.0093 62.8053 25.1586 63.568 25.1586 64.4C25.1586 65.232 25.0093 66 24.7106 66.704C24.412 67.408 23.9906 68.016 23.4466 68.528C22.9026 69.04 22.2626 69.44 21.5266 69.728C20.8013 70.016 20.0066 70.16 19.1426 70.16ZM19.1266 68.336C19.692 68.336 20.2146 68.24 20.6946 68.048C21.1746 67.856 21.5906 67.584 21.9426 67.232C22.2946 66.8693 22.5666 66.4533 22.7586 65.984C22.9613 65.504 23.0626 64.976 23.0626 64.4C23.0626 63.824 22.9613 63.3013 22.7586 62.832C22.5666 62.352 22.2946 61.936 21.9426 61.584C21.5906 61.2213 21.1746 60.944 20.6946 60.752C20.2146 60.56 19.692 60.464 19.1266 60.464C18.5613 60.464 18.0386 60.56 17.5586 60.752C17.0893 60.944 16.6733 61.2213 16.3106 61.584C15.9586 61.936 15.6813 62.352 15.4786 62.832C15.2866 63.3013 15.1906 63.824 15.1906 64.4C15.1906 64.9653 15.2866 65.488 15.4786 65.968C15.6813 66.448 15.9586 66.8693 16.3106 67.232C16.6626 67.584 17.0786 67.856 17.5586 68.048C18.0386 68.24 18.5613 68.336 19.1266 68.336ZM33.6114 70.16C32.7367 70.16 31.9314 70.016 31.1954 69.728C30.4594 69.44 29.8194 69.04 29.2754 68.528C28.7314 68.0053 28.31 67.3973 28.0114 66.704C27.7127 66 27.5634 65.232 27.5634 64.4C27.5634 63.568 27.7127 62.8053 28.0114 62.112C28.31 61.408 28.7314 60.8 29.2754 60.288C29.8194 59.7653 30.4594 59.36 31.1954 59.072C31.9314 58.784 32.7314 58.64 33.5954 58.64C34.47 58.64 35.27 58.784 35.9954 59.072C36.7314 59.36 37.3714 59.7653 37.9154 60.288C38.4594 60.8 38.8807 61.408 39.1794 62.112C39.478 62.8053 39.6274 63.568 39.6274 64.4C39.6274 65.232 39.478 66 39.1794 66.704C38.8807 67.408 38.4594 68.016 37.9154 68.528C37.3714 69.04 36.7314 69.44 35.9954 69.728C35.27 70.016 34.4754 70.16 33.6114 70.16ZM33.5954 68.336C34.1607 68.336 34.6834 68.24 35.1634 68.048C35.6434 67.856 36.0594 67.584 36.4114 67.232C36.7634 66.8693 37.0354 66.4533 37.2274 65.984C37.43 65.504 37.5314 64.976 37.5314 64.4C37.5314 63.824 37.43 63.3013 37.2274 62.832C37.0354 62.352 36.7634 61.936 36.4114 61.584C36.0594 61.2213 35.6434 60.944 35.1634 60.752C34.6834 60.56 34.1607 60.464 33.5954 60.464C33.03 60.464 32.5074 60.56 32.0274 60.752C31.558 60.944 31.142 61.2213 30.7794 61.584C30.4274 61.936 30.15 62.352 29.9474 62.832C29.7554 63.3013 29.6594 63.824 29.6594 64.4C29.6594 64.9653 29.7554 65.488 29.9474 65.968C30.15 66.448 30.4274 66.8693 30.7794 67.232C31.1314 67.584 31.5474 67.856 32.0274 68.048C32.5074 68.24 33.03 68.336 33.5954 68.336ZM44.6881 67.36L44.5761 64.896L50.4481 58.8H52.7841L47.9041 63.984L46.7521 65.248L44.6881 67.36ZM42.8321 70V58.8H44.9121V70H42.8321ZM50.6401 70L46.3521 64.896L47.7281 63.376L53.0721 70H50.6401ZM55.4884 70V58.8H60.7364C62.0804 58.8 63.1044 59.0667 63.8084 59.6C64.5124 60.1227 64.8644 60.8267 64.8644 61.712C64.8644 62.3093 64.7257 62.8213 64.4484 63.248C64.171 63.664 63.7977 63.9893 63.3284 64.224C62.8697 64.448 62.3684 64.56 61.8244 64.56L62.1124 63.984C62.7417 63.984 63.307 64.1013 63.8084 64.336C64.3097 64.56 64.7044 64.8907 64.9924 65.328C65.291 65.7653 65.4404 66.3093 65.4404 66.96C65.4404 67.92 65.0724 68.6667 64.3364 69.2C63.6004 69.7333 62.507 70 61.0564 70H55.4884ZM57.5684 68.368H60.9284C61.707 68.368 62.3044 68.24 62.7204 67.984C63.1364 67.728 63.3444 67.3173 63.3444 66.752C63.3444 66.1973 63.1364 65.792 62.7204 65.536C62.3044 65.2693 61.707 65.136 60.9284 65.136H57.4084V63.52H60.5124C61.2377 63.52 61.7924 63.392 62.1764 63.136C62.571 62.88 62.7684 62.496 62.7684 61.984C62.7684 61.4613 62.571 61.072 62.1764 60.816C61.7924 60.56 61.2377 60.432 60.5124 60.432H57.5684V68.368ZM73.9083 70.16C73.0336 70.16 72.2283 70.016 71.4923 69.728C70.7563 69.44 70.1163 69.04 69.5723 68.528C69.0283 68.0053 68.6069 67.3973 68.3083 66.704C68.0096 66 67.8603 65.232 67.8603 64.4C67.8603 63.568 68.0096 62.8053 68.3083 62.112C68.6069 61.408 69.0283 60.8 69.5723 60.288C70.1163 59.7653 70.7563 59.36 71.4923 59.072C72.2283 58.784 73.0283 58.64 73.8923 58.64C74.7669 58.64 75.5669 58.784 76.2923 59.072C77.0283 59.36 77.6683 59.7653 78.2123 60.288C78.7563 60.8 79.1776 61.408 79.4763 62.112C79.7749 62.8053 79.9243 63.568 79.9243 64.4C79.9243 65.232 79.7749 66 79.4763 66.704C79.1776 67.408 78.7563 68.016 78.2123 68.528C77.6683 69.04 77.0283 69.44 76.2923 69.728C75.5669 70.016 74.7723 70.16 73.9083 70.16ZM73.8923 68.336C74.4576 68.336 74.9803 68.24 75.4603 68.048C75.9403 67.856 76.3563 67.584 76.7083 67.232C77.0603 66.8693 77.3323 66.4533 77.5243 65.984C77.7269 65.504 77.8283 64.976 77.8283 64.4C77.8283 63.824 77.7269 63.3013 77.5243 62.832C77.3323 62.352 77.0603 61.936 76.7083 61.584C76.3563 61.2213 75.9403 60.944 75.4603 60.752C74.9803 60.56 74.4576 60.464 73.8923 60.464C73.3269 60.464 72.8043 60.56 72.3243 60.752C71.8549 60.944 71.4389 61.2213 71.0763 61.584C70.7243 61.936 70.4469 62.352 70.2443 62.832C70.0523 63.3013 69.9563 63.824 69.9563 64.4C69.9563 64.9653 70.0523 65.488 70.2443 65.968C70.4469 66.448 70.7243 66.8693 71.0763 67.232C71.4283 67.584 71.8443 67.856 72.3243 68.048C72.8043 68.24 73.3269 68.336 73.8923 68.336ZM88.377 70.16C87.5023 70.16 86.697 70.016 85.961 69.728C85.225 69.44 84.585 69.04 84.041 68.528C83.497 68.0053 83.0757 67.3973 82.777 66.704C82.4783 66 82.329 65.232 82.329 64.4C82.329 63.568 82.4783 62.8053 82.777 62.112C83.0757 61.408 83.497 60.8 84.041 60.288C84.585 59.7653 85.225 59.36 85.961 59.072C86.697 58.784 87.497 58.64 88.361 58.64C89.2357 58.64 90.0357 58.784 90.761 59.072C91.497 59.36 92.137 59.7653 92.681 60.288C93.225 60.8 93.6463 61.408 93.945 62.112C94.2437 62.8053 94.393 63.568 94.393 64.4C94.393 65.232 94.2437 66 93.945 66.704C93.6463 67.408 93.225 68.016 92.681 68.528C92.137 69.04 91.497 69.44 90.761 69.728C90.0357 70.016 89.241 70.16 88.377 70.16ZM88.361 68.336C88.9263 68.336 89.449 68.24 89.929 68.048C90.409 67.856 90.825 67.584 91.177 67.232C91.529 66.8693 91.801 66.4533 91.993 65.984C92.1957 65.504 92.297 64.976 92.297 64.4C92.297 63.824 92.1957 63.3013 91.993 62.832C91.801 62.352 91.529 61.936 91.177 61.584C90.825 61.2213 90.409 60.944 89.929 60.752C89.449 60.56 88.9263 60.464 88.361 60.464C87.7957 60.464 87.273 60.56 86.793 60.752C86.3237 60.944 85.9077 61.2213 85.545 61.584C85.193 61.936 84.9157 62.352 84.713 62.832C84.521 63.3013 84.425 63.824 84.425 64.4C84.425 64.9653 84.521 65.488 84.713 65.968C84.9157 66.448 85.193 66.8693 85.545 67.232C85.897 67.584 86.313 67.856 86.793 68.048C87.273 68.24 87.7957 68.336 88.361 68.336ZM99.4538 67.36L99.3418 64.896L105.214 58.8H107.55L102.67 63.984L101.518 65.248L99.4538 67.36ZM97.5978 70V58.8H99.6778V70H97.5978ZM105.406 70L101.118 64.896L102.494 63.376L107.838 70H105.406Z" fill="#CFCFCF"/>
<g clip-path="url(#clip0_317_282)">
<path d="M40.608 43.9498C42.6543 44.689 44.8146 45.0626 46.9902 45.0533C49.366 45.0452 51.7236 44.6392 53.9652 43.8522C58.4712 42.2849 62.2126 39.3684 64.5001 35.64C66.8186 31.8613 67.3726 27.7024 66.0602 23.9291C66.0347 23.8573 66.0054 23.7868 65.9723 23.7182C66.3016 23.9513 66.6786 24.1084 67.076 24.1781C67.4735 24.2478 67.8814 24.2283 68.2704 24.1211L80.671 18.1039C80.9512 17.9693 81.2018 17.7802 81.4083 17.5478C81.6147 17.3154 81.7729 17.0442 81.8735 16.75C81.9741 16.4559 82.0152 16.1447 81.9944 15.8345C81.9736 15.5243 81.8913 15.2213 81.7523 14.9433L81.5692 14.5774C81.2993 14.0352 80.8296 13.6189 80.259 13.4159C79.6884 13.2129 79.0613 13.239 78.5096 13.4889L66.8318 18.8209C66.2499 18.9824 65.7371 19.3304 65.3723 19.8116C65.0075 20.2928 64.8108 20.8805 64.8125 21.4844C64.8124 21.7944 64.8652 22.1021 64.9688 22.3944L64.739 22.5476C61.6735 21.0144 54.2387 22.2504 47.2922 24.6667C46.8841 24.8086 46.4772 24.9549 46.0715 25.1056C45.3038 22.2615 47.2904 20.1915 47.3985 20.0819L46.2917 18.9791C45.5347 19.7978 44.9684 20.774 44.6336 21.8376C44.2383 23.0835 44.2274 24.4195 44.6023 25.6716C43.3523 26.1707 42.1511 26.6984 41.0145 27.2467C40.3841 24.9067 40.3281 22.4922 40.414 20.7475C40.4308 20.3953 40.3771 20.0434 40.256 19.7123C40.1349 19.3812 39.9489 19.0776 39.7088 18.8194C39.4688 18.5612 39.1795 18.3536 38.8581 18.2087C38.5367 18.0639 38.1896 17.9847 37.8371 17.9759C37.4847 17.9671 37.134 18.0288 36.8058 18.1574C36.4775 18.286 36.1783 18.4789 35.9256 18.7248C35.673 18.9707 35.472 19.2646 35.3345 19.5892C35.197 19.9139 35.1258 20.2627 35.125 20.6153V26.1406C35.1248 26.2525 35.0802 26.3598 35.001 26.4389C34.9218 26.5179 34.8146 26.5624 34.7026 26.5625C34.441 26.5624 34.1819 26.6141 33.9403 26.7145C33.6988 26.8149 33.4794 26.9621 33.2949 27.1476C33.1104 27.3331 32.9645 27.5533 32.8654 27.7955C32.7663 28.0376 32.7161 28.297 32.7177 28.5586C32.7523 29.8262 32.9782 31.0813 33.3877 32.2815C32.1923 33.5612 31.7648 34.7213 32.1172 35.7349C33.4298 39.5081 36.4452 42.4256 40.608 43.9498V43.9498ZM53.452 42.3759C49.2858 43.825 44.9152 43.863 41.1452 42.4826C38.3597 41.4627 36.155 39.7574 34.739 37.5671C35.5559 37.727 36.3871 37.8018 37.2194 37.7903C37.698 37.7903 38.2091 37.7717 38.7526 37.7345C41.4463 37.5497 44.6881 36.907 48.0902 35.897C48.1586 35.9079 50.0215 35.2977 50.8858 34.9971C52.8571 34.3148 54.7918 33.5309 56.682 32.6486L56.7219 32.63C58.7657 31.6682 60.5947 30.6452 62.0986 29.6141C63.4442 28.6916 64.4578 27.8185 65.1393 26.995C65.7271 33.234 60.961 39.7641 53.452 42.3759V42.3759ZM61.5855 26.6532C61.4208 28.0536 61.1466 28.3421 61.1351 28.3537L61.1502 28.3689C60.5034 28.8093 59.7941 29.2486 59.0311 29.682C59.5409 28.673 59.8776 27.5855 60.0274 26.4649C60.0531 26.2756 60.1465 26.1022 60.2903 25.9765C60.4341 25.8508 60.6185 25.7815 60.8095 25.7813C60.9198 25.7812 61.0288 25.8046 61.1294 25.8497C61.2301 25.8948 61.32 25.9608 61.3933 26.0431C61.4666 26.1255 61.5217 26.2225 61.5548 26.3277C61.588 26.4329 61.5985 26.5439 61.5857 26.6534L61.5855 26.6532ZM79.1535 14.9121C79.3373 14.8293 79.546 14.8209 79.7359 14.8886C79.9257 14.9564 80.0819 15.0951 80.1717 15.2756L80.3547 15.6415C80.4012 15.7345 80.4287 15.8359 80.4355 15.9396C80.4423 16.0434 80.4284 16.1475 80.3945 16.2458C80.3605 16.344 80.3073 16.4346 80.238 16.512C80.1686 16.5895 80.0845 16.6524 79.9905 16.6969L70.2799 21.4273C70.272 21.041 70.1821 20.6608 70.0162 20.3118C69.8504 19.9628 69.6123 19.6531 69.3177 19.403L79.1535 14.9121ZM67.5469 20.3125C67.7914 20.3122 68.0298 20.3885 68.2287 20.5306C68.4276 20.6727 68.5771 20.8735 68.656 21.1049C68.735 21.3362 68.7396 21.5865 68.6691 21.8206C68.5986 22.0547 68.4565 22.2608 68.2629 22.4101L67.8332 22.6195C67.6942 22.6562 67.5495 22.6656 67.4069 22.6471L67.59 22.5251C67.6764 22.4687 67.7508 22.3957 67.8089 22.3103C67.867 22.225 67.9076 22.129 67.9283 22.0278C67.9491 21.9267 67.9496 21.8224 67.9298 21.7211C67.91 21.6198 67.8703 21.5234 67.8131 21.4375C67.7558 21.3516 67.6821 21.2779 67.5961 21.2206C67.5102 21.1634 67.4138 21.1237 67.3124 21.104C67.2111 21.0843 67.1069 21.0848 67.0057 21.1056C66.9046 21.1264 66.8086 21.167 66.7233 21.2251L66.3768 21.4561C66.3843 21.1506 66.5109 20.8601 66.7294 20.6465C66.948 20.4329 67.2413 20.3131 67.5469 20.3125V20.3125ZM46.2436 28.6252L47.444 27.6249C47.1603 27.287 46.9055 26.9258 46.6822 26.5451C47.055 26.4075 47.4303 26.273 47.8053 26.1424C52.0777 24.6564 56.2428 23.7136 59.532 23.488C61.0626 23.3831 62.3527 23.4443 63.2625 23.6651C64.0028 23.8445 64.4721 24.1205 64.5839 24.4421C64.6957 24.7637 64.4989 25.2712 64.03 25.8714C63.7586 26.2102 63.4605 26.5268 63.1385 26.818C63.2044 26.2043 63.0261 25.5894 62.642 25.1063C62.2579 24.6233 61.6989 24.3109 61.0862 24.2369C60.4735 24.1629 59.8563 24.3332 59.3682 24.7109C58.8801 25.0886 58.5605 25.6434 58.4784 26.2551C58.0816 29.1761 56.3548 30.8783 55.8732 31.3022C54.0776 32.1335 52.2415 32.8741 50.3717 33.5213C49.5747 33.7985 48.7832 34.0564 47.9971 34.2949C44.9105 33.6992 42.728 31.834 41.506 28.7434C42.6712 28.175 43.9122 27.6285 45.2055 27.1125C45.5012 27.6495 45.8489 28.1561 46.2436 28.6252V28.6252ZM34.4024 28.2498C34.4416 28.2101 34.4884 28.1786 34.5399 28.1572C34.5915 28.1357 34.6468 28.1248 34.7026 28.125C35.2289 28.1244 35.7334 27.9151 36.1055 27.543C36.4776 27.1709 36.6869 26.6664 36.6875 26.1402V20.6153C36.6877 20.3278 36.802 20.0522 37.0052 19.849C37.2085 19.6457 37.4841 19.5314 37.7715 19.5313C37.9184 19.5313 38.0638 19.5613 38.1989 19.6193C38.3339 19.6773 38.4557 19.7622 38.5569 19.8687C38.6581 19.9753 38.7366 20.1013 38.7876 20.2391C38.8386 20.3769 38.861 20.5237 38.8535 20.6704C38.7418 22.9402 38.8579 26.2795 40.0456 29.2976C40.7297 31.0359 41.6973 32.4663 42.9213 33.5488C43.6184 34.1636 44.4029 34.6714 45.2492 35.0555C43.4625 35.5178 41.6459 35.8563 39.8125 36.0685L39.1599 35.9482C37.415 35.6573 36.0898 34.5549 35.221 32.6716C34.641 31.372 34.3215 29.9714 34.2804 28.5488C34.2798 28.4934 34.2903 28.4384 34.3113 28.3871C34.3322 28.3357 34.3632 28.2891 34.4024 28.2498V28.2498ZM33.5931 35.2216C33.485 34.911 33.6639 34.4371 34.0806 33.8811C34.5418 34.7572 35.172 35.5333 35.9349 36.1645C35.5914 36.1324 35.2505 36.077 34.9146 35.9985C34.1746 35.819 33.7055 35.5433 33.5934 35.222V35.2215L33.5931 35.2216Z" fill="#CFCFCF"/>
<path d="M39.0313 10.1562C38.5677 10.1562 38.1146 10.2937 37.7291 10.5512C37.3437 10.8088 37.0433 11.1748 36.8659 11.6031C36.6885 12.0314 36.6421 12.5026 36.7325 12.9572C36.823 13.4119 37.0462 13.8295 37.374 14.1573C37.7017 14.4851 38.1194 14.7083 38.574 14.7987C39.0287 14.8892 39.4999 14.8427 39.9282 14.6653C40.3564 14.488 40.7225 14.1875 40.98 13.8021C41.2375 13.4167 41.375 12.9636 41.375 12.5C41.3743 11.8786 41.1271 11.2829 40.6878 10.8435C40.2484 10.4041 39.6526 10.1569 39.0313 10.1562V10.1562ZM39.0313 13.2813C38.8767 13.2813 38.7257 13.2354 38.5972 13.1496C38.4687 13.0637 38.3686 12.9417 38.3095 12.799C38.2503 12.6562 38.2349 12.4991 38.265 12.3476C38.2952 12.196 38.3696 12.0568 38.4788 11.9476C38.5881 11.8383 38.7273 11.7639 38.8788 11.7338C39.0304 11.7036 39.1875 11.7191 39.3302 11.7782C39.473 11.8374 39.595 11.9375 39.6808 12.066C39.7667 12.1944 39.8125 12.3455 39.8125 12.5C39.8123 12.7071 39.7299 12.9057 39.5834 13.0522C39.437 13.1986 39.2384 13.281 39.0313 13.2813V13.2813Z" fill="#CFCFCF"/>
<path d="M46.8438 7.03125C46.8438 6.5677 46.7063 6.11456 46.4488 5.72913C46.1912 5.34371 45.8252 5.0433 45.3969 4.86591C44.9687 4.68852 44.4974 4.6421 44.0428 4.73254C43.5881 4.82297 43.1705 5.04619 42.8427 5.37397C42.5149 5.70175 42.2917 6.11936 42.2013 6.57401C42.1109 7.02865 42.1573 7.4999 42.3347 7.92816C42.5121 8.35643 42.8125 8.72247 43.1979 8.98001C43.5833 9.23754 44.0365 9.375 44.5 9.375C45.1214 9.3743 45.7171 9.12715 46.1565 8.68776C46.5959 8.24837 46.8431 7.65264 46.8438 7.03125ZM43.7188 7.03125C43.7188 6.87673 43.7646 6.72569 43.8504 6.59721C43.9363 6.46874 44.0583 6.3686 44.201 6.30947C44.3438 6.25034 44.5009 6.23487 44.6524 6.26501C44.804 6.29516 44.9432 6.36956 45.0524 6.47882C45.1617 6.58808 45.2361 6.72729 45.2662 6.87884C45.2964 7.03038 45.2809 7.18747 45.2218 7.33022C45.1627 7.47298 45.0625 7.59499 44.934 7.68084C44.8056 7.76668 44.6545 7.8125 44.5 7.8125C44.2929 7.81227 44.0943 7.72988 43.9478 7.58342C43.8014 7.43696 43.719 7.23838 43.7188 7.03125Z" fill="#CFCFCF"/>
<path d="M42.1562 15.625H43.7188V17.1875H42.1562V15.625Z" fill="#CFCFCF"/>
<path d="M41.375 22.6562H42.9375V24.2188H41.375V22.6562Z" fill="#CFCFCF"/>
<path d="M46.0625 29.6875H47.625V31.25H46.0625V29.6875Z" fill="#CFCFCF"/>
<path d="M33.5625 14.8438H35.125V16.4062H33.5625V14.8438Z" fill="#CFCFCF"/>
<path d="M40.1604 35.8062L41.0271 34.5062C39.1178 33.2333 39.0335 32.0605 39.0313 32.0112C39.0319 32.0244 39.0313 32.0312 39.0313 32.0312H37.4688C37.4688 32.234 37.5442 34.0625 40.1604 35.8062Z" fill="#CFCFCF"/>
<path d="M47.8681 12.079C48.1908 11.5908 48.556 11.132 48.9594 10.708L47.8538 9.60382C47.7488 9.7089 45.2812 12.207 45.2812 14.8438H46.8438C46.8438 14.0471 47.1979 13.091 47.8681 12.079V12.079Z" fill="#CFCFCF"/>
</g>
<defs>
<clipPath id="clip0_317_282">
<rect width="50" height="50" fill="white" transform="translate(32)"/>
</clipPath>
</defs>
</svg>
