<svg viewBox="0 0 1603.34 1279.32" xmlns="http://www.w3.org/2000/svg"><path d="m963.39 1208c-17.74 11.87-35.8 24.39-47.55 42.21s-15.84 42.37-4.39 60.39c17.42 27.44 58.34 25.6 88.74 14.13 31.49-11.89 60.51-30.51 93.22-38.45s72.43-1.94 91.07 26.08c12.86 19.33 13.09 45 26 64.26 23.73 35.26 76.29 32.83 117 20.56 70.91-21.4 135.16-60 198.58-98.3 59.93-36.17 121.31-73.6 164-129s67.94-161.88 32.24-196.68c-17.8-17.37-91-4.53-99.24-7.38-26.38-9.16-48.09-34.31-73.69-41.59-55-15.65-140.49 40.49-190.32 63.19a2797.69 2797.69 0 0 0 -395.66 220.58z" fill="#ffead2" transform="translate(-198.06 -126.04)"/><path d="m445.86 484.17c-21.18 18.7-42.25 39.3-51.82 65.88s-4.1 60.62 19.56 76.06c18.23 11.89 41.82 10.18 63.49 8l141.63-14c19.48-1.93 39.62-3.79 58.22 2.29s35.36 22.34 35.56 41.91c.24 22.85-20.54 39.74-39.79 52.05-74.72 47.76-162 76.3-230.54 132.55-57.9 47.52 60.13 88.7-157.68 206.12-78.06 42.08-126.76 164.85-41.53 189.34 83.19 23.9 319.2-4.51 390.65-53.36a4074 4074 0 0 1 544.94-313.81c205.19-97.89 426.3-184.09 576.09-355.11 17.33-19.78 33.85-41.14 42-66.15s6.55-54.53-9.88-75.07c-21.59-27-60.71-31-95.26-30.09a636.63 636.63 0 0 0 -172.66 28.78c-36.54 11.44-222.39 110.53-242.18 77.74-12.21-20.23 132.2-135.22 144.13-155.61s28.1-39 33.67-62c38-156.55-242.85-113.33-321.54-90-157 46.55-314 101-458.73 178.32-81.51 43.56-158.99 94.99-228.33 156.16z" fill="#ffead2" transform="translate(-198.06 -126.04)"/><path d="m1383.48 312a31.39 31.39 0 0 0 1 7.93h231.64a31.47 31.47 0 0 0 -30.82-37.64h-.55a63.93 63.93 0 0 0 -121.6-34.81 46 46 0 0 0 -49.92 33.13 31.43 31.43 0 0 0 -29.75 31.39z" fill="#ffb8a5" transform="translate(-198.06 -126.04)"/><ellipse cx="1302.55" cy="193.9" fill="#ffa99a" rx="116.13" ry="13.63"/><path d="m370 840.54a41.73 41.73 0 0 0 1.34 10.5h306.9a41.64 41.64 0 0 0 -40.82-49.86h-.74a84.69 84.69 0 0 0 -161.11-46.12 60.13 60.13 0 0 0 -7.52-.47 60.93 60.93 0 0 0 -58.58 44.41 41.64 41.64 0 0 0 -39.47 41.54z" fill="#ffb8a5" transform="translate(-198.06 -126.04)"/><ellipse cx="327.18" cy="725.01" fill="#ffa99a" rx="153.86" ry="18.06"/><path d="m787.72 266.35a33.33 33.33 0 0 1 -1.4 9.55h-321.13a33.12 33.12 0 0 1 -.85-7.48c0-20.92 19.51-37.89 43.57-37.89h.77a67.35 67.35 0 0 1 -.77-10.19c0-42.56 39.67-77 88.61-77 35.91 0 66.83 18.58 80.74 45.28a72.8 72.8 0 0 1 7.86-.42c29.2 0 53.8 17.07 61.34 40.35 22.99 1.01 41.26 17.55 41.26 37.8z" fill="#ffb8a5" transform="translate(-198.06 -126.04)"/><ellipse cx="428.39" cy="149.87" fill="#ffa99a" rx="161.26" ry="11.93"/><path d="m503.57 1198.22 289.74-152.77-302.27-49.05z" fill="#a55668"/><path d="m491.04 996.4 12.53 201.82-27.62-210.84z" fill="#ba5e68"/><path d="m1591.04 654.49-367.27 109.64-284.16 84.83-463.66 138.42-129.87-71.49z" fill="#e1454e"/><path d="m1591.04 654.49-904.84 579.9-195.16-237.99 419.89-130.51 312.75-97.22z" fill="#e1454e"/><path d="m1421.83 890.17c0 1.54 0 3.05-.09 4.54-.55 12.49-3.78 23.11-11.65 28.59-28.47 19.8-526.4 269-530.46 271.54s-20.24-6.27-20.24-6.27l-35.2 18.65-18.25 35.16-27.4-10.87-24.61-30 355.07-209.58 28.67-16.93z" fill="#d3737b" transform="translate(-198.06 -126.04)"/><path d="m1591.04 654.49-1100 341.91-15.09-9.02z" fill="#ba5e68"/><path d="m1421.83 890.17-284.16 84.83 107-63.17 174.38-53.61c1.1 6.98 2.75 25.32 2.78 31.95z" fill="#d3737b" transform="translate(-198.06 -126.04)"/><path d="m778.54 1231.51s85.47 81.17 106.55 82.7 904-533.68 904-533.68l-904.84 579.9z" fill="#d3737b" transform="translate(-198.06 -126.04)"/><path d="m662 1030.24c-9.7 1.92-19.85 4-27.45 10.37s-11.52 18.28-5.8 26.35c7.89-.22 14.68 5.1 21.36 9.3s15.52 7.43 22.17 3.19c5.89-3.76 7.33-12.13 5.16-18.76s-7.09-12-11.87-17c13-2.32 106.17-11.62 101.14-28.28-3.47-11.6-90.56 12.03-104.71 14.83z" fill="#ed5861" transform="translate(-198.06 -126.04)"/><path d="m994.16 950.63c-21.53 31.41-72 28.42-72 28.42a42.07 42.07 0 0 0 .66-8c.11-16.87-4.77-45.58-4.77-45.58.59-.23 15-5.92 32.89-11.23l3.7-1.07 2.07-.58 1.49-.41 2.46-.66c4.94-1.3 10-2.5 14.85-3.5l2.44-.48h.14c2-.38 4-.73 6-1s4-.58 5.9-.79l1.65 17.65z" fill="#ff8661" transform="translate(-198.06 -126.04)"/><path d="m999.46 1007.45-139.94 71.49c-3.3-34 56.43-71.07 62.6-99.89 0 0 50.51 3 72-28.42z" fill="#5b0900" transform="translate(-198.06 -126.04)"/><path d="m994.16 950.63c-21.53 31.41-72 28.42-72 28.42a42.07 42.07 0 0 0 .66-8c26.88 3.15 52.37-16.36 55.89-22.9s-1-20.28-4.56-26.87-54.85 3.93-56.08 4.18c.59-.23 15-5.92 32.89-11.23l3.7-1.07 2.07-.58 1.49-.41 2.46-.66c4.94-1.3 10-2.5 14.85-3.5l2.44-.48h.14c2-.38 4-.73 6-1s4-.58 5.9-.79l1.65 17.65z" fill="#ef7356" transform="translate(-198.06 -126.04)"/><path d="m1281.64 793.61s-7.84 39.06-37.05 72.61c-18.06 20.75-44.28 39.39-81.86 45.4-96.91 15.47-167.24-141.27-169.3-145.92v-.06l12 73.58 11.81 72.4c-3.37-6.27-14-7.42-27.25-6q-2.88.32-5.9.79c-2 .3-4 .64-6 1h-.14l-2.44.48c-4.94 1-10 2.2-14.85 3.5l-2.46.66-1.49.41-2.07.58c-1.25.35-2.48.7-3.7 1.07-19.73 5.74-36.11 12.12-36.11 12.12l-29.74-214.13a87.28 87.28 0 0 1 86.43-99.27h1.27a87.25 87.25 0 0 1 62.53 27.68l19.21 20.91 86 93.56 32.23 8.82z" fill="#b56249" transform="translate(-198.06 -126.04)"/><path d="m1244.59 866.22c-18.06 20.75-44.28 39.39-81.86 45.4-96.91 15.47-167.24-141.27-169.3-145.92 2.41 4.58 122.57 213.42 264 32.08z" fill="#9b6452" transform="translate(-198.06 -126.04)"/><path d="m994.16 883.09s-24.61-128.94-14.47-138.18 96.78 147.48 201 146.7" fill="none" stroke="#fff" stroke-miterlimit="10" stroke-width="3" transform="translate(-198.06 -126.04)"/><path d="m1017.21 911.62c-3.37-6.27-14-7.42-27.25-6q-2.88.32-5.9.79c-2 .3-4 .64-6 1h-.14l-2.44.48c-4.94 1-10 2.2-14.85 3.5l-2.46.66-1.49.41-2.07.58c-1.25.35-2.48.7-3.7 1.07-19.73 5.74-36.11 12.12-36.11 12.12l-29.71-214.13s40 182.78 44.33 187.52 62.09-10.82 70-9.47 5.93-50.95 5.93-50.95z" fill="#9b6452" transform="translate(-198.06 -126.04)"/><path d="m911.18 900.13s51.38-21.66 101.52-16.13" fill="none" stroke="#fff" stroke-miterlimit="10" stroke-width="3" transform="translate(-198.06 -126.04)"/><path d="m1054.53 661.44s-35.29 27.08-63.18 21.76-31.92-61.72-31.92-61.72l13.36-8.63a87.25 87.25 0 0 1 62.53 27.68z" fill="#9b6452" transform="translate(-198.06 -126.04)"/><path d="m991.61 923.3-1.61-17.65c13.23-1.45 23.88-.3 27.25 6-.04-.03 1.49 7.62-25.64 11.65z" fill="#845245" transform="translate(-198.06 -126.04)"/><path d="m1281.64 793.61-24.24 4.17-2.53 5.16c-54.74 6.48-106.17 13.52-106.17 13.52l24-52.64z" fill="#9b6452" transform="translate(-198.06 -126.04)"/><path d="m1099.61 611.76s-1.52 1.84-4.28 4.87c-2.11 2.32-4.94 5.33-8.37 8.75-19.69 19.65-59.26 52.91-96.12 46.41-38-6.71-38.59-93.69-31.45-170.37 1.16-12.34 2.51-24.41 3.93-35.83 1.2-9.56 2.45-18.67 3.67-27.11q.78-5.33 1.53-10.28c4.11-26.86 7.62-44.73 7.62-44.73-1.77-15.85 3.19-38.29 5-45.8.4-1.63.65-2.56.65-2.56l-5.32-38.4a5.49 5.49 0 0 1 -.06-.8 5.75 5.75 0 0 1 11.3-1.49l10.29 38.15 2.78-47.28a4.68 4.68 0 0 1 1.47-3.15 4.75 4.75 0 0 1 3.23-1.28 4.7 4.7 0 0 1 4.68 4.14l5.58 45.55 8.58-41.56a5.08 5.08 0 0 1 10.05 1.06l-.37 45.57s26.28-10.65 21.21 7.6-20.79 44.2-20.79 44.2l-2 37-2.54 47.49-3.22 60.32-1.46 27.27-.44 8.17 14.56-15.8 7.25-7.86z" fill="#ff8661" transform="translate(-198.06 -126.04)"/><path d="m1032.47 424.42-2.54 47.49-3.22 60.32c-25.16-39.05-48.24-75.12-59.72-93.75q.78-5.33 1.53-10.28c4.11-26.86 7.62-44.73 7.62-44.73-1.77-15.85 3.19-38.29 5-45.8l11.66 26.51 9.87-13.3a7.19 7.19 0 0 1 13 4.28 7.29 7.29 0 0 1 -.19 1.66l-8.81 37.18z" fill="#ef7356" transform="translate(-198.06 -126.04)"/><path d="m1095.33 616.63c-14.18 15.59-61.2 62.79-104.49 55.16-38-6.71-38.59-93.69-31.45-170.37s2 79.47 8.12 106 8.91 63.23 46.14 52.54c33-9.46 56.13-18.92 46.81-60.84-5.11-23.06 13.79-5.93 34.87 17.51z" fill="#ef7356" transform="translate(-198.06 -126.04)"/><path d="m826.75 441.63-11.15 15.89" fill="none" stroke="#b75b54" stroke-miterlimit="10" stroke-width="2"/><path d="m1029.93 471.91-4.68 87.59-61.92-93.89c1.7-13.58 3.51-26.26 5.2-37.39z" fill="#ef7356" transform="translate(-198.06 -126.04)"/><path d="m1408.31 771.84-259.61 44.62-2.26-16.89-17.44-130.42-1.19-9-6.81-51.24-12.84 14.2-61.54-79.11s19-21.65 34.37-35.27c5.3-4.72 10.16-8.47 13.63-10 9.73-4.37 39-14 54.61-19 6.1-2 10.13-3.24 10.13-3.24l100-10.81s5.55.53 14.11 1.57c24.87 3 75.15 10.33 88.23 21.39 10.82 9.16 12.93 43.68 13.58 74.7.41 19.37.25 37.37 1.29 47 2.67 24.94 31.74 161.5 31.74 161.5z" fill="#e8ab75" transform="translate(-198.06 -126.04)"/><path d="m1168.43 580.52-40.6 8.11-46.83-79.89c5.3-4.72 10.16-8.47 13.63-10z" fill="#e2d49c" transform="translate(-198.06 -126.04)"/><path d="m1265.42 621.08s-46.92 28.4-62.12 35c-13.63 5.91-44 22.84-74.28 13.08l-1.19-9 124.9-61.08z" fill="#e2d49c" transform="translate(-198.06 -126.04)"/><path d="m1408.31 771.84-259.61 44.62-2.26-16.89c18.2 16.74 247.5-33 247-41.59s-23.83-129.8-26.36-141.2 0-24.6-4.73-28.15-84.29 35-86.68 36.16l99.58-61.52c.41 19.37.25 37.37 1.29 47 2.7 25.01 31.77 161.57 31.77 161.57z" fill="#e2d49c" transform="translate(-198.06 -126.04)"/><path d="m1375.24 563.27-22.9 14.88-78.91 48-53.92-98.4c26.19 10.11 67.11 72.37 73.87 71.36s56.11-30.11 65.62-39.61 9.46-35.1 2.7-70.93c10.78 9.16 12.89 43.68 13.54 74.7z" fill="#e2d49c" transform="translate(-198.06 -126.04)"/><path d="m1103.43 357.8-81.98 43.91" fill="none" stroke="#a06453" stroke-miterlimit="10" stroke-width="2"/><path d="m1164.28 446.03-88.91 54.08" fill="none" stroke="#a06453" stroke-miterlimit="10" stroke-width="2"/><g transform="translate(-198.06 -126.04)"><path d="m1154.34 781c4.06-.88 5.78 7 9.83 6.17s2.34-8.81 6.4-9.69 5.77 7 9.82 6.18 2.34-8.81 6.4-9.69 5.78 7.05 9.83 6.17" fill="none" stroke="#fff" stroke-miterlimit="10" stroke-width="3"/><path d="m1296.74 732c4.06-.88 5.78 7 9.83 6.17s2.34-8.81 6.4-9.69 5.77 7 9.82 6.18 2.34-8.81 6.4-9.69 5.78 7 9.84 6.17" fill="none" stroke="#fff" stroke-miterlimit="10" stroke-width="3"/><path d="m1280.35 628.58c4.05-.88 5.77 7 9.83 6.17s2.34-8.81 6.39-9.69 5.77 7.05 9.83 6.17 2.34-8.8 6.4-9.68 5.77 7.05 9.83 6.17" fill="none" stroke="#fff" stroke-miterlimit="10" stroke-width="3"/><path d="m1138.42 537.43c4-.88 5.77 7.05 9.83 6.17s2.34-8.81 6.39-9.69 5.77 7.05 9.83 6.17 2.34-8.8 6.4-9.68 5.77 7.05 9.83 6.17" fill="none" stroke="#fff" stroke-miterlimit="10" stroke-width="3"/><path d="m1081 515.33c4-.88 5.77 7 9.83 6.17s2.34-8.81 6.39-9.68 5.78 7.05 9.83 6.17 2.34-8.81 6.4-9.69 5.77 7.05 9.83 6.17" fill="none" stroke="#fff" stroke-miterlimit="10" stroke-width="3"/><path d="m1239.36 683.62c4.05-.88 5.77 7 9.83 6.17s2.34-8.8 6.39-9.68 5.77 7 9.83 6.17 2.34-8.81 6.4-9.69 5.77 7 9.83 6.17" fill="none" stroke="#fff" stroke-miterlimit="10" stroke-width="3"/><path d="m1172.74 655.2c4-.88 5.77 7 9.82 6.17s2.34-8.81 6.4-9.69 5.77 7.05 9.83 6.17 2.34-8.8 6.39-9.68 5.78 7.05 9.84 6.17" fill="none" stroke="#fff" stroke-miterlimit="10" stroke-width="3"/><path d="m1329.52 683.62c4.06-.88 5.78 7 9.83 6.17s2.34-8.8 6.4-9.68 5.77 7 9.82 6.17 2.34-8.81 6.4-9.69 5.78 7 9.84 6.17" fill="none" stroke="#fff" stroke-miterlimit="10" stroke-width="3"/><path d="m1362.34 752c4.05-.88 5.77 7 9.83 6.17s2.34-8.81 6.39-9.69 5.78 7 9.83 6.17 2.34-8.8 6.4-9.68 5.77 7 9.83 6.17" fill="none" stroke="#fff" stroke-miterlimit="10" stroke-width="3"/><path d="m1252.29 787.63c4-.88 5.77 7 9.83 6.17s2.34-8.81 6.39-9.69 5.77 7 9.83 6.17 2.34-8.8 6.4-9.68 5.77 7 9.83 6.17" fill="none" stroke="#fff" stroke-miterlimit="10" stroke-width="3"/><path d="m1203.3 738.67c4.06-.88 5.78 7.05 9.83 6.17s2.34-8.81 6.4-9.69 5.77 7.05 9.82 6.18 2.34-8.81 6.4-9.69 5.78 7.05 9.84 6.17" fill="none" stroke="#fff" stroke-miterlimit="10" stroke-width="3"/><path d="m1139.05 712.39c4.06-.87 5.78 7.05 9.83 6.18s2.34-8.81 6.4-9.69 5.77 7 9.82 6.17 2.34-8.81 6.4-9.69 5.78 7 9.84 6.17" fill="none" stroke="#fff" stroke-miterlimit="10" stroke-width="3"/><path d="m1322.63 568.1c4.06-.88 5.77 7 9.83 6.17s2.34-8.81 6.39-9.69 5.78 7 9.83 6.17 2.34-8.8 6.4-9.68 5.77 7 9.83 6.17" fill="none" stroke="#fff" stroke-miterlimit="10" stroke-width="3"/><path d="m1249.5 544.1c4-.88 5.77 7 9.83 6.17s2.34-8.81 6.39-9.69 5.77 7 9.83 6.17 2.34-8.8 6.4-9.68 5.77 7 9.83 6.17" fill="none" stroke="#fff" stroke-miterlimit="10" stroke-width="3"/><path d="m1313.3 501.85c4-.88 5.77 7 9.83 6.17s2.34-8.81 6.39-9.69 5.77 7.05 9.83 6.17 2.34-8.8 6.4-9.68 5.77 7.05 9.83 6.17" fill="none" stroke="#fff" stroke-miterlimit="10" stroke-width="3"/><path d="m1273.43 626.15c-9.12-.67-16-12.12-16-12.12l13.24-6.62a61.45 61.45 0 0 1 2.76 18.74z" fill="#a06453"/><path d="m1113.4 318.24 2.31 14.47a4.23 4.23 0 0 1 -3 4.72l-392.85 114.51-19.86-124.24 19.32-.62 383.24-12.19 6.49-.21a4.24 4.24 0 0 1 4.35 3.56z" fill="#ffca4f"/><path d="m1113.4 318.24 2.31 14.47a4.23 4.23 0 0 1 -3 4.72l-392.85 114.51-19.86-124.24 19.32-.62s30.13 14.51 34.69 52.81-1.76 46.48.36 50.26 348.56-93.63 351-97.6 6.69-9.56-2.81-17.66l6.49-.21a4.24 4.24 0 0 1 4.35 3.56z" fill="#ffb636"/></g><ellipse cx="709.95" cy="389.82" fill="#eda126" rx="39.55" ry="62.91" transform="matrix(.98749648 -.15764104 .15764104 .98749648 -250.62 -9.29)"/><path d="m770.67 337.05c-4.34.71-9.3 2-11.13 6-2 4.35 1.19 9.66 5.52 11.69s9.36 1.69 14.13 1.31l123.36-10c18.3-1.48 37.71-1.31 55.74-4.77 5.15-1 11.43-3.84 7.43-10.13-3.7-5.81-13.56-1.58-19.09-.9-37.42 4.61-75.2 2.21-112.79 2.42-21.12.1-42.29 1-63.17 4.38z" fill="#ffd580" transform="translate(-198.06 -126.04)"/><ellipse cx="711.09" cy="389.64" fill="#fff" rx="36.39" ry="57.88" transform="matrix(.98749648 -.15764104 .15764104 .98749648 -250.58 -9.11)"/><path d="m723.92 445.89a24.19 24.19 0 0 1 -3.71.9c-19.84 3.17-40-19.85-45.05-51.42s7-59.72 26.81-62.89a24.41 24.41 0 0 1 3.8-.29c-17.59 5.86-27.81 32.43-23.1 62s22.7 51.6 41.25 51.7z" fill="#e69a74" transform="translate(-198.06 -126.04)"/><path d="m809.11 324.23a194.84 194.84 0 0 1 14.41 49.19 196.93 196.93 0 0 1 2 47.74" fill="none" stroke="#fff" stroke-miterlimit="10" stroke-width="5" transform="translate(-198.06 -126.04)"/><path d="m936.32 320.18a208.89 208.89 0 0 1 11 65.47" fill="none" stroke="#fff" stroke-miterlimit="10" stroke-width="5" transform="translate(-198.06 -126.04)"/><path d="m1062 316.18q2.28 9 3.82 18.57c.84 5.28 1.48 10.51 1.91 15.66" fill="none" stroke="#fff" stroke-miterlimit="10" stroke-width="5" transform="translate(-198.06 -126.04)"/><path d="m1270.64 607.41-13.24 6.59-78.26 39.07a79 79 0 0 1 -101.62-27.69c-13.12-20.23-28.37-43.76-43.7-67.49-38.83-60.1-78.18-121.45-84.88-133.56-8.6-15.52-22-58.82-22-58.82l-20.78-47.51a5.12 5.12 0 0 1 -.44-2.08 5.19 5.19 0 0 1 9.44-3l26.67 38.08-23.83-49.75a4.46 4.46 0 0 1 -.45-2 4.56 4.56 0 0 1 8.39-2.49l29.77 45.76-13.38-47.26a4.55 4.55 0 0 1 -.17-1.26 4.65 4.65 0 0 1 8.9-1.88l30.34 69 9.87-13.3a7.19 7.19 0 0 1 13 4.28 7.29 7.29 0 0 1 -.19 1.66l-8.78 37.15 149.7 176.76 74.53-39.92s40.05 41.94 51.11 79.66z" fill="#ff8661" transform="translate(-198.06 -126.04)"/><path d="m946.92 441.63 15.21 20.96" fill="none" stroke="#b75b54" stroke-miterlimit="10" stroke-width="2"/><path d="m995.24 390.93s-14.88 11.78-22.31 14.49" fill="none" stroke="#b75b54" stroke-miterlimit="10" stroke-width="2" transform="translate(-198.06 -126.04)"/><path d="m1270.64 607.41-13.24 6.59-78.26 39.07a79 79 0 0 1 -101.62-27.69c-13.12-20.23-28.37-43.76-43.7-67.49.85 1.16 54.74 84.77 94.18 92.23 47 8.9 124.73-42.74 124.73-51 0-13-33.22-71.36-33.22-71.36s40.07 41.93 51.13 79.65z" fill="#ef7356" transform="translate(-198.06 -126.04)"/><path d="m1396.54 913.14c-30.49 41.57-520.29 268.73-520.29 268.73s-15.21-58.82-61.86-88.23l418.82-246.42 21.66-44.28 2.53-5.16 139.14-23.92s30.46 97.7 0 139.28z" fill="#b56249" transform="translate(-198.06 -126.04)"/><path d="m876.25 1181.87a137.21 137.21 0 0 1 -21.12-12.32c-24.73-17.69-34.59-38.82-38.44-54.29-3.18-12.72-2.3-21.62-2.3-21.62a115.26 115.26 0 0 1 15.13 11.42c19.76 17.54 32.12 39.85 39.13 55.9a155.06 155.06 0 0 1 7.6 20.91z" fill="#845245" transform="translate(-198.06 -126.04)"/><path d="m1396.54 913.14c-30.49 41.57-520.29 268.73-520.29 268.73s-15.21-58.82-61.86-88.23c52.73 24.33 68 64.91 79.34 61.86s463.2-231.21 489.75-261.63 5.9-91.27 0-100c-3.1-4.59-67.89 1.9-128.61 9.07l2.53-5.16 139.14-23.92s30.46 97.7 0 139.28z" fill="#9b6452" transform="translate(-198.06 -126.04)"/><path d="m839.37 1078.94a148.14 148.14 0 0 1 62 91.23" fill="none" stroke="#fff" stroke-miterlimit="10" stroke-width="3" transform="translate(-198.06 -126.04)"/><path d="m890.17 1137.75s435.37-218.53 453.6-260.11 6.9-95.89 6.9-95.89" fill="none" stroke="#fff" stroke-miterlimit="10" stroke-width="3" transform="translate(-198.06 -126.04)"/><path d="m868.72 1165.17-13.83 8.08-37 21.59c-45.62-8.72-51.94-43-52.12-44.06 12.23-4.61 37.3-22 52.77-33.2 3.61-2.61 6.7-4.88 9-6.57l4.22-3.14c19.05 18.24 30.56 41 36.96 57.3z" fill="#ff8661" transform="translate(-198.06 -126.04)"/><path d="m817.88 1194.84-24.54 31.55-148.51-57.87c11.2-28 92.34-7 120.92-17.77 0 0 5.78 35.25 52.13 44.09z" fill="#5b0900" transform="translate(-198.06 -126.04)"/><path d="m868.72 1165.17-13.83 8.08-37 21.59c-45.62-8.72-51.94-43-52.12-44.06 9.75 24.69 40.25 31.26 48 33.24s34-12.58 37.73-22.59-7.35-20.57-23.93-50.45l4.22-3.14c19.02 18.27 30.53 41.03 36.93 57.33z" fill="#ef7356" transform="translate(-198.06 -126.04)"/><path d="m1108.71 261.26s-7.49 42.41 7.29 47.48 29-50 29-50z" fill="#5b0900" transform="translate(-198.06 -126.04)"/><path d="m1249.43 393.25 9.89 72.36s5.55.53 14.11 1.57c0 0 0 11.5-10.84 22.33-7.56 7.55-20.4 14.79-42.19 17.57l-3.84.43-.51.05c-28.84 2.75-45.34-3.35-54.73-10.54-10.46-8-12.09-17.35-12.09-17.35 6.1-2 10.13-3.24 10.13-3.24l-4.57-48s-25.69 4.06-33.13-10.81c-6.67-13.34-5.73-125.57-5.46-148.65 0-2.66 0-4.14 0-4.14l117.63-6.09v62.88s23-21 44.08-3c24.84 20.99 12.09 79.38-28.48 74.63z" fill="#ff8661" transform="translate(-198.06 -126.04)"/><ellipse cx="935.39" cy="190.98" rx="5.45" ry="7.95"/><path d="m1120.39 296.79a2.5 2.5 0 0 1 -1.69-4.34 24.62 24.62 0 0 1 13-6.21 24.27 24.27 0 0 1 13 1.69 2.5 2.5 0 1 1 -2 4.6 19.26 19.26 0 0 0 -20.65 3.6 2.51 2.51 0 0 1 -1.66.66z" fill="#5b0900" transform="translate(-198.06 -126.04)"/><path d="m1187.83 325.45a1.49 1.49 0 0 1 -1.34-.83c-3.52-7-16.8-5-16.94-5a1.49 1.49 0 0 1 -1.57-2.14c.06-.14 6.88-13.59 24-6.82a1.5 1.5 0 1 1 -1.11 2.79c-10.1-4-15.82 0-18.43 2.92 4.82-.19 13.53.43 16.78 6.93a1.5 1.5 0 0 1 -.67 2 1.47 1.47 0 0 1 -.72.15z" transform="translate(-198.06 -126.04)"/><path d="m1192.65 303.64a2.49 2.49 0 0 1 -2-1 16.84 16.84 0 0 0 -21.43-4.42 2.5 2.5 0 1 1 -2.39-4.39 21.83 21.83 0 0 1 27.75 5.72 2.51 2.51 0 0 1 -2 4.05z" fill="#5b0900" transform="translate(-198.06 -126.04)"/><path d="m1152.34 330.54v29.16s-10.91-4.31-10.91 5.32 10.91 5.83 10.91 5.83" fill="none" stroke="#b75b54" stroke-miterlimit="10" stroke-width="2" transform="translate(-198.06 -126.04)"/><path d="m1154.11 393.92a24.42 24.42 0 0 0 18.76-2.28 24 24 0 0 0 9.89-11.66" fill="none" stroke="#b75b54" stroke-miterlimit="10" stroke-width="2" transform="translate(-198.06 -126.04)"/><path d="m1154.79 428.4s53.32-6.34 66.5-10.39-20.44 16.72-65.1 25.09z" fill="#ef7356" transform="translate(-198.06 -126.04)"/><path d="m1241.32 335.36a21.41 21.41 0 0 1 36 12.93" fill="none" stroke="#b75b54" stroke-miterlimit="10" stroke-width="2" transform="translate(-198.06 -126.04)"/><path d="m1061.26 203.7-13.18 45.43" fill="none" stroke="#b75b54" stroke-miterlimit="10" stroke-width="2"/><path d="m1249.43 393.25s-9.12-.85-14.45-4.65" fill="none" stroke="#b75b54" stroke-miterlimit="10" stroke-width="2" transform="translate(-198.06 -126.04)"/><path d="m1233.88 258.71v62.88c-15.63 6.42-17.15-33.89-17.15-33.89-58.82 7.35-100.53-18.76-100.53-18.76 0-2.66 0-4.14 0-4.14z" fill="#ef7356" transform="translate(-198.06 -126.04)"/><path d="m1279.86 255.5c-.07 1.5-.23 3.68-.46 6.33-1.08 12.64-3.64 36-4.9 47.24l-.73 6.43a35.22 35.22 0 0 0 -22.84-3.06 34.83 34.83 0 0 0 -17 9.15c-12.84 4.9-12.33-40.23-12.33-40.23-76.06 12.17-145.54-24.85-130.31-59.83 7.65-17.57 27-11.22 47.41-2.64 16.08 6.76 32.79 14.92 44.87 13.8 27.38-2.54 61.35-22.31 64.39 5.07 20.23-14.71 32.4 6.59 31.9 17.74z" fill="#5b0900" transform="translate(-198.06 -126.04)"/><path d="m1274.5 309.07-.73 6.43a35.22 35.22 0 0 0 -22.84-3.06 34.83 34.83 0 0 0 -17 9.15c-12.84 4.9-12.33-40.23-12.33-40.23-76.06 12.17-145.54-24.85-130.31-59.83 8.11 37.18 54.76 60.51 129.8 51.72 0 0 2.7 31.77 17.24 31.1s23.04-5.76 36.17 4.72z" fill="#490009" transform="translate(-198.06 -126.04)"/><path d="m1279.86 255.5c-.07 1.5-.23 3.68-.46 6.33a309.23 309.23 0 0 1 -51.07-6.26c-40.45-8.25-74.12-22.57-89.68-36.68 16.08 6.76 32.79 14.92 44.87 13.8 27.38-2.54 61.35-22.31 64.39 5.07 20.28-14.71 32.45 6.59 31.95 17.74z" fill="#681108" transform="translate(-198.06 -126.04)"/></svg>