<?xml version="1.0" encoding="UTF-8"?>
<svg width="752pt" height="752pt" version="1.1" viewBox="0 0 752 752" xmlns="http://www.w3.org/2000/svg">
 <g>
  <path d="m453.12 347.36c-13.23-13.238-30.668-21.43-49.301-23.164-18.633-1.7344-37.285 3.1055-52.727 13.672-3.7461 2.5391-7.2578 5.4102-10.492 8.5742-0.28516 0.24609-0.57031 0.52344-0.96875 0.91406v0.003906c-2.0078 1.9883-3.8906 4.1016-5.6406 6.3203l-0.066407 0.085937-0.011719 0.015625v0.003906h-0.003906c-2.2148 2.707-4.2305 5.5742-6.0312 8.5781-9.418 15.336-13.379 33.406-11.25 51.277 2.1328 17.871 10.234 34.5 22.996 47.191 0.54688 0.55078 1.0547 1.0508 1.4023 1.3398v0.003907c2.0273 1.9453 4.1523 3.7812 6.3711 5.5l0.003906 0.003906 0.023437 0.019531c3.0742 2.3594 6.3125 4.4961 9.6953 6.3828 3.4141 1.9297 6.9727 3.5977 10.637 4.9922 14.473 5.5117 30.23 6.7266 45.375 3.4922 15.145-3.2383 29.031-10.781 39.988-21.723h0.003906-0.003906c15.02-15.066 23.453-35.473 23.453-56.742 0-21.273-8.4336-41.68-23.453-56.742zm-98.547 106.75c-1.2266 1.2227-2.5273 2.3867-3.8672 3.5-0.10938 0.089843-0.22266 0.17187-0.33203 0.26172l-0.046875-0.039062c-0.98438-0.84766-1.9531-1.7266-2.918-2.6562-0.36719-0.32031-0.70703-0.66016-1.0781-1.0352-11.258-11.195-18.406-25.863-20.289-41.629-1.8789-15.766 1.6172-31.703 9.9258-45.234 0.94531-1.5664 1.9141-3.0039 2.9023-4.3867 0.074218-0.10156 0.15625-0.19922 0.23047-0.30078 0.35938 0.17188 0.72656 0.32422 1.082 0.50391 0.57422 0.29297 1.1367 0.60156 1.6992 0.91016 0.98828 0.54688 1.9609 1.125 2.9141 1.7344 0.53906 0.34375 1.0742 0.67969 1.6016 1.043 0.99609 0.68359 1.9609 1.4102 2.9141 2.1562 0.43359 0.33984 0.875 0.66016 1.3008 1.0117 1.3516 1.125 2.668 2.3008 3.9258 3.5586l0.003907 0.003906c10.676 10.691 16.676 25.184 16.68 40.293 0.007813 15.109-5.9805 29.605-16.648 40.305zm13.863 14.969c-0.25-0.10938-0.50391-0.20703-0.75-0.32031-2.0234-0.89844-4.0156-1.8594-5.9297-2.9375-1.1875-0.66406-2.3672-1.3984-3.5391-2.1484 1.0508-0.92188 2.0703-1.8828 3.0547-2.8672h-0.003907c12.445-12.477 19.426-29.379 19.422-47-0.007812-17.621-7.0039-34.52-19.453-46.988-1.418-1.418-2.9062-2.7422-4.4297-4.0156-0.45312-0.37891-0.92188-0.73828-1.3828-1.1055-1.1406-0.90625-2.3086-1.7695-3.5-2.5938-0.49219-0.33984-0.97656-0.68359-1.4766-1.0078-1.5781-1.0273-3.1914-2.0039-4.8555-2.8906-0.074219-0.039063-0.14453-0.089844-0.22266-0.12891 0.35938-0.375 0.67188-0.73047 1.0586-1.1133l0.55859-0.52734c1.3242-1.2969 2.7148-2.5234 4.1367-3.707 0.40625-0.33594 0.82031-0.65625 1.2344-0.98438 0.57031-0.45312 1.1602-0.86719 1.7422-1.3008l-0.007812-0.003907c20.414 12.281 34.039 33.273 36.949 56.918 2.9102 23.645-5.2227 47.312-22.051 64.172-0.18359 0.18359-0.36719 0.36719-0.55469 0.54688zm77.988-14.934-0.003906-0.003906c-17.859 17.816-43.844 24.793-68.227 18.309 17.137-18.586 25.301-43.73 22.348-68.84-2.957-25.109-16.73-47.676-37.715-61.777 20.109-10.848 44.215-11.316 64.727-1.2617 20.512 10.055 34.91 29.395 38.652 51.93 3.7461 22.539-3.625 45.492-19.785 61.641z"/>
  <path d="m510.16 463.42c-2.6055-2.5703-5.9648-4.2422-9.5898-4.7617-3.6211-0.51953-7.3164 0.13281-10.543 1.8672l-3.082-3.0859v0.003906c11.742-20.109 16.52-43.527 13.594-66.625-2.9258-23.098-13.391-44.586-29.77-61.129h-0.003906c-19.598-19.527-46.09-30.559-73.754-30.715-27.664-0.15234-54.277 10.582-74.09 29.891-0.30859 0.25-0.61719 0.55078-0.92578 0.85547-2.4141 2.418-4.6172 4.9102-6.6758 7.4102h0.003906c-23.031-1.9648-45.754 6.3555-62.066 22.73-12.168 12.285-19.984 28.215-22.262 45.355-2.2734 17.141 1.1211 34.559 9.6641 49.59l-0.97266 0.97266c-5.2422-2.3828-11.41-1.2812-15.504 2.7656l-47.141 47.137c-2.6016 2.6016-4.0625 6.125-4.0625 9.8047 0 3.6758 1.4609 7.2031 4.0625 9.8047l22.355 22.359c5.4258 5.3867 14.18 5.375 19.59-0.023438l47.137-47.141c4.0586-4.0898 5.1641-10.266 2.7734-15.512l0.92578-0.92578v0.003906c19.977 11.539 44.031 13.664 65.719 5.7969 2.1367 1.5273 4.3281 3.0039 6.5898 4.3477 16.242 9.7461 34.812 14.934 53.758 15.016 18.941 0.082031 37.559-4.9492 53.883-14.555l3.0391 3.0391c-1.7461 3.2266-2.4062 6.9336-1.8867 10.566 0.52344 3.6328 2.1992 7 4.7852 9.6094l63.863 63.863c3.207 3.2031 7.5469 5.0039 12.078 5.0078 4.5312 0.003906 8.8789-1.7891 12.09-4.9844l30.289-30.289h-0.003906c3.2031-3.2109 5.0039-7.5586 5.0039-12.094s-1.8008-8.8828-5.0039-12.094zm-250.73 30.371-47.137 47.141c-1.7109 1.7109-4.4805 1.7188-6.1992 0.019531l-22.355-22.355 0.003906-0.003906c-0.82812-0.82422-1.2891-1.9414-1.2891-3.1055 0-1.168 0.46094-2.2852 1.2891-3.1094l47.137-47.137c0.82812-0.82422 1.9531-1.2852 3.1211-1.2812 1.1211-0.003906 2.1992 0.42578 3.0078 1.1992l22.473 22.473c1.668 1.7227 1.6445 4.4648-0.050781 6.1602zm12.219-19.66-0.023437-0.023437c-0.98047-0.625-1.8867-1.3633-2.8359-2.0391h0.003906c-2.4609-1.7578-4.8086-3.668-7.0273-5.7227-0.58984-0.55078-1.2305-1.0469-1.8047-1.6172-2.1953-2.2344-4.2383-4.6094-6.1133-7.1211-1.1367-1.5-2.2734-3-3.2812-4.5859-8.457-13.344-12.137-29.164-10.43-44.875 1.7031-15.707 8.6914-30.371 19.816-41.59 12.863-12.926 30.32-20.23 48.555-20.316-0.25 0.37891-0.44531 0.78906-0.69141 1.1719-0.49219 0.77344-1.0352 1.5469-1.4961 2.3203-1.0586 1.6953-2.0547 3.5039-3.0391 5.3828-0.0625 0.11719-0.14062 0.22656-0.20312 0.34766-0.5 0.050781-0.99219 0.14844-1.4922 0.21094-0.79688 0.097656-1.5898 0.20703-2.3828 0.33594-0.99219 0.16406-1.9766 0.35547-2.957 0.56641-0.76953 0.16797-1.5391 0.33594-2.3008 0.53125-0.98047 0.25391-1.9453 0.54297-2.9102 0.84375-0.74219 0.23047-1.4844 0.45703-2.2148 0.71484-0.96094 0.33984-1.9062 0.72656-2.8477 1.1133-0.70703 0.29297-1.4141 0.57031-2.1094 0.88672-0.94922 0.43359-1.8711 0.91797-2.7969 1.4023-0.65625 0.34375-1.3203 0.66797-1.9648 1.0352-0.94531 0.53906-1.8594 1.1328-2.7734 1.7227-0.58594 0.37891-1.1875 0.73047-1.7617 1.1289-0.98828 0.6875-1.9375 1.4375-2.8867 2.1836-0.46484 0.36328-0.94531 0.69922-1.3984 1.0781-1.3828 1.1562-2.7188 2.375-4.0078 3.6562l0.003907 0.007812c-12.227 12.137-18.672 28.93-17.711 46.133 0.96484 17.203 9.2461 33.168 22.754 43.867 0.56641 0.45312 1.1562 0.85547 1.7344 1.2852 1.2148 0.90234 2.4492 1.7734 3.7188 2.5781 0.70312 0.44531 1.4141 0.85937 2.1289 1.2734 1.2227 0.70703 2.4688 1.3672 3.7344 1.9805 0.74609 0.36328 1.4844 0.72656 2.2422 1.0547 1.3711 0.59766 2.7695 1.1211 4.1797 1.6133 0.66406 0.23438 1.3164 0.5 1.9922 0.71094h-0.003906c2.0547 0.64453 4.1406 1.1758 6.2461 1.5977 0.48047 0.09375 0.96875 0.13281 1.4531 0.21484 1.6758 0.28906 3.3633 0.52734 5.0664 0.67188 0.80859 0.066406 1.6172 0.082031 2.4297 0.11719 0.89844 0.039063 1.7891 0.13281 2.6914 0.13281 0.49219 0 0.98828-0.066406 1.4805-0.078125 0.96875-0.023438 1.9375-0.082031 2.9102-0.15234 1.3398-0.097656 2.6797-0.23828 4.0234-0.42969 0.53906-0.074219 1.0742-0.082031 1.6133-0.17188 0.98438 1.0742 1.9961 2.1367 3.043 3.1836 1.5 1.5039 3.0352 2.9492 4.6055 4.3398l-0.007813-0.003906c-18.723 4.9062-38.648 1.7656-54.953-8.668zm19.609-65.609c0.03125 0.75391 0.035156 1.5078 0.085938 2.2617 0.30469 4.7461 0.92969 9.4648 1.8711 14.125 0.15234 0.75 0.34375 1.4922 0.51172 2.2383 0.35547 1.5742 0.72656 3.1484 1.1523 4.707 0.24219 0.87891 0.51172 1.75 0.77734 2.6211 0.42969 1.4219 0.88281 2.8359 1.3711 4.2383 0.31641 0.89844 0.64453 1.793 0.98437 2.6875 0.52344 1.3711 1.0742 2.7344 1.6602 4.0859 0.375 0.875 0.75 1.7461 1.1484 2.6094 0.64453 1.3945 1.3359 2.7656 2.0469 4.1367 0.40625 0.78125 0.78906 1.5703 1.2148 2.3438 0.89062 1.625 1.8516 3.2188 2.832 4.8008 0.30078 0.48438 0.57031 0.98438 0.88281 1.4648 1.2305 1.9141 2.5312 3.7969 3.8945 5.6445-1.168 0.0625-2.332 0.097656-3.4922 0.082031-0.5-0.007812-1 0.027344-1.4961 0.003906h0.003906c-1.9531-0.085937-3.8984-0.28125-5.8281-0.58984-0.46484-0.074219-0.91406-0.20312-1.3789-0.28906-1.4453-0.27344-2.8828-0.58594-4.3008-0.98438-0.70312-0.19922-1.3945-0.44531-2.0859-0.67188-1.1562-0.37891-2.3047-0.78516-3.4336-1.25-0.73047-0.30078-1.4492-0.625-2.1641-0.95703-1.082-0.50391-2.1406-1.0508-3.1875-1.6289-0.67969-0.375-1.3594-0.75-2.0195-1.1602-1.1055-0.68359-2.1758-1.4297-3.2344-2.1992-0.53906-0.39062-1.0938-0.75781-1.6211-1.1719l0.007812-0.003907c-12.441-9.6641-19.676-24.566-19.582-40.32 0.097656-15.754 7.5156-30.562 20.074-40.078 0.39062-0.30469 0.78516-0.60547 1.1836-0.89453 1.7188-1.2578 3.5117-2.4062 5.375-3.4414 0.27734-0.15234 0.56641-0.27734 0.84375-0.42188h0.003907c1.6992-0.89062 3.4531-1.6836 5.2461-2.375 0.41016-0.16016 0.81641-0.33203 1.2344-0.48437 1.9883-0.71094 4.0234-1.3008 6.0898-1.7578 0.14844-0.035156 0.30078-0.054687 0.45312-0.085937-0.84375 2.1523-1.6133 4.3242-2.3086 6.5117-0.16016 0.5-0.28125 1.0078-0.43359 1.5117-0.55078 1.8281-1.0703 3.6602-1.5195 5.5-0.20313 0.83594-0.36719 1.6797-0.55078 2.5195-0.33203 1.5273-0.64844 3.0586-0.91406 4.5938-0.15625 0.92188-0.28906 1.8438-0.42188 2.7695-0.21094 1.4727-0.39844 2.9414-0.54688 4.418-0.09375 0.94141-0.17969 1.8828-0.25 2.8242-0.10938 1.4961-0.17969 2.9883-0.22266 4.4844-0.027344 0.90234-0.0625 1.8008-0.066407 2.7031-0.007812 1.625 0.042969 3.25 0.11328 4.8789zm156.7 76.207c-15.039 9.5781-32.453 14.777-50.281 15.016-17.832 0.23828-35.375-4.4922-50.668-13.664-2.7227-1.625-5.3555-3.3984-7.8828-5.3086-3.7227-2.7617-7.2305-5.7969-10.5-9.0781-0.11328-0.11328-0.21094-0.23047-0.32031-0.34375l-0.066407-0.074218c-0.94922-0.94922-1.8281-1.9297-2.7188-2.9102-0.41406-0.45703-0.86328-0.89844-1.2695-1.3594l-0.003906-0.003906c-3.1367-3.5898-6.0078-7.4102-8.582-11.426-16.633-25.949-19.691-58.34-8.2148-86.949 0.88672-2.2109 1.8555-4.3984 2.9141-6.5625l0.007813-0.015625-0.003906 0.003906c1.3594-2.7695 2.8555-5.4648 4.4883-8.082 0.36328-0.59375 0.76172-1.1797 1.1406-1.7695 1.5859-2.4492 3.25-4.8555 5.0703-7.1562l0.10547-0.14453c2.3281-2.9805 4.8438-5.8125 7.5234-8.4844l0.55859-0.52734h-0.003906c24.312-23.898 59.504-33.066 92.387-24.059 32.883 9.0078 58.492 34.824 67.23 67.777 8.7422 32.953-0.70703 68.07-24.801 92.188-4.8828 4.8867-10.281 9.2266-16.109 12.934zm9.9648 4.6836c0.074219-0.050781 0.14062-0.11328 0.21094-0.16406 1.9375-1.4023 3.8203-2.8945 5.6641-4.4375 0.47266-0.39453 0.94531-0.79297 1.4102-1.1992 1.8984-1.6445 3.7656-3.3359 5.5508-5.125 1.7734-1.7734 3.457-3.6328 5.0977-5.5234 0.42578-0.49219 0.84375-0.98438 1.2617-1.4844 1.5234-1.8203 2.9961-3.6797 4.3867-5.5938 0.066406-0.09375 0.14453-0.17969 0.21094-0.26953l1.0273 1.0273-23.797 23.801zm109.41 55.363-30.289 30.289v-0.003906c-2.9844 2.9609-7.7969 2.9492-10.77-0.019532l-63.867-63.867c-2.9375-2.9297-2.9922-7.6758-0.11719-10.672l0.015625-0.011719 30.465-30.465c3-2.875 7.7461-2.8359 10.695 0.089843l63.867 63.863c2.9766 2.9844 2.9766 7.8125 0 10.797z"/>
  <path d="m415.13 203.27c0.20313-10.227-3.9062-20.066-11.32-27.113-7.3672-7.1914-17.32-11.121-27.613-10.898-6.2227 0.019531-12.352 1.5078-17.887 4.3516-5.5664 2.7539-10.387 6.8047-14.066 11.805-5.1367 7.5312-7.7188 16.512-7.3633 25.617v4.7344h27.004v0.003907c-2.0742 1.6719-3.7422 3.7891-4.8828 6.1953-2.0078 5.1523-2.8945 10.676-2.6055 16.195v9.5742h37.984v-4.7344c-0.011718-1.5664 0.078126-3.1328 0.26563-4.6875 1.125-0.94141 2.3789-1.7109 3.7266-2.293 5.3477-2.5664 9.8047-6.6797 12.789-11.805 2.9883-5.125 4.3711-11.027 3.9688-16.945zm-20.992 20.281v-0.003907c-3.0234 1.1953-5.6484 3.2148-7.5742 5.8281-0.8125 1.5117-1.2969 3.1758-1.4258 4.8867h-19.27v-0.10156c-0.27734-4.1289 0.30078-8.2695 1.7031-12.16 1.1719-2.2148 3.1172-3.918 5.4609-4.793l5.2266-2.3047h0.003906c5.1211-1.6289 8.6328-6.3398 8.7383-11.715 0.011719-3.0117-1.1797-5.9023-3.3125-8.0312-2.1289-2.1289-5.0195-3.3203-8.0312-3.3086-6.1016-0.21484-11.309 4.3711-11.867 10.449h-17.219c0.36328-5.4844 2.2031-10.77 5.3242-15.293 2.7969-3.793 6.457-6.8555 10.684-8.9414 4.2109-2.168 8.8789-3.3125 13.617-3.3359 7.8359-0.22656 15.426 2.7461 21.027 8.2344 5.5742 5.2578 8.6406 12.645 8.4336 20.309 0.39062 4.1523-0.50391 8.3242-2.5664 11.953-2.0625 3.625-5.1875 6.5312-8.9531 8.3242zm-21.277-16.621c0.019531-5.6094 1.6875-5.6094 2.7969-5.6094 0.5-0.015625 0.98438 0.17969 1.3359 0.53125 0.35547 0.35547 0.55078 0.83594 0.53516 1.3359 0 0.45703 0 1.6836-3.0898 3.0469z"/>
  <path d="m375.89 244.08c-6.0977-0.089844-11.961 2.3516-16.195 6.7422-5.7695 5.8164-8.0156 14.258-5.8945 22.172 2.1211 7.9141 8.2891 14.102 16.191 16.254 7.9062 2.1484 16.359-0.0625 22.195-5.8125 4.4297-4.207 6.8945-10.074 6.8047-16.184-0.03125-6.1211-2.4727-11.988-6.7969-16.324-4.3242-4.3398-10.18-6.8008-16.305-6.8477zm9.6758 32.586c-2.5547 2.5742-6.0508 3.9883-9.6758 3.9102-3.6055 0.18359-7.1211-1.168-9.6758-3.7227-2.5547-2.5508-3.9062-6.0664-3.7266-9.6758-0.089843-3.6328 1.3359-7.1406 3.9297-9.6875 2.4648-2.582 5.9023-4.0117 9.4727-3.9414 3.6211-0.046875 7.1016 1.4219 9.5859 4.0586 2.6289 2.5156 4.0938 6.0078 4.043 9.6445 0.074219 3.5586-1.3633 6.9766-3.9531 9.4141z"/>
 </g>
</svg>
