<svg width="16" height="16" viewBox="0 0 16 16" fill="none" xmlns="http://www.w3.org/2000/svg">
<path d="M0.666687 13.3333V12.0833C0.666687 9.82817 2.49486 8 4.75002 8H5.91669C8.17185 8 10 9.82817 10 12.0833V13.3333" stroke="#7A7AC7" stroke-linecap="round"/>
<path d="M8.66669 9.33333V9.33333C8.66669 7.49238 10.1591 6 12 6V6C13.841 6 15.3334 7.49238 15.3334 9.33333V9.66667" stroke="#7A7AC7" stroke-linecap="round"/>
<path d="M5.33335 7.99996C6.80611 7.99996 8.00002 6.80605 8.00002 5.33329C8.00002 3.86053 6.80611 2.66663 5.33335 2.66663C3.86059 2.66663 2.66669 3.86053 2.66669 5.33329C2.66669 6.80605 3.86059 7.99996 5.33335 7.99996Z" stroke="#7A7AC7" stroke-linecap="round" stroke-linejoin="round"/>
<path d="M12 6C13.1046 6 14 5.10457 14 4C14 2.89543 13.1046 2 12 2C10.8954 2 10 2.89543 10 4C10 5.10457 10.8954 6 12 6Z" stroke="#7A7AC7" stroke-linecap="round" stroke-linejoin="round"/>
</svg>
